<?xml version="1.0" standalone="no"?>
<!DOCTYPE svg PUBLIC "-//W3C//DTD SVG 20010904//EN"
 "http://www.w3.org/TR/2001/REC-SVG-20010904/DTD/svg10.dtd">
<svg version="1.0" xmlns="http://www.w3.org/2000/svg"
 width="980.000000pt" height="872.000000pt" viewBox="0 0 980.000000 872.000000"
 preserveAspectRatio="xMidYMid meet">

<g transform="translate(0.000000,872.000000) scale(0.100000,-0.100000)"
fill="#000000" stroke="none">
<path d="M4700 8690 c-169 -44 -343 -158 -443 -290 -55 -73 -4119 -7111 -4177
-7235 -51 -106 -69 -179 -76 -300 -26 -429 293 -805 724 -855 122 -14 8224
-14 8347 0 428 49 747 427 721 855 -7 121 -25 194 -76 300 -58 124 -4122 7162
-4177 7235 -101 134 -275 247 -447 290 -107 27 -290 27 -396 0z m2243 -4332
l2038 -3533 -4077 -3 c-2243 -1 -4079 -1 -4081 1 -4 5 4070 7067 4077 7067 3
0 922 -1590 2043 -3532z"/>
<path d="M4773 5706 c-241 -59 -413 -278 -413 -526 0 -98 271 -1703 295 -1751
31 -61 62 -94 115 -123 134 -73 301 -21 371 116 28 55 299 1647 299 1758 0
147 -52 272 -160 381 -131 132 -327 188 -507 145z"/>
<path d="M4835 2724 c-224 -34 -404 -192 -460 -404 -19 -71 -19 -200 0 -273
49 -190 209 -348 396 -392 188 -44 373 8 509 145 109 108 160 232 160 385 -1
289 -217 518 -507 538 -37 3 -81 3 -98 1z"/>
</g>
</svg>
